<?xml version="1.0" encoding="UTF-8" standalone="no"?>
<!DOCTYPE svg PUBLIC "-//W3C//DTD SVG 1.1//EN" "http://www.w3.org/Graphics/SVG/1.1/DTD/svg11.dtd">
<svg width="100%" height="100%" viewBox="0 0 256 256" version="1.1" xmlns="http://www.w3.org/2000/svg" xmlns:xlink="http://www.w3.org/1999/xlink" xml:space="preserve" xmlns:serif="http://www.serif.com/" style="fill-rule:evenodd;clip-rule:evenodd;stroke-linejoin:round;stroke-miterlimit:2;">
    <rect id="Artboard3" x="0" y="0" width="256" height="256" style="fill:none;"/>
    <clipPath id="_clip1">
        <rect x="0" y="0" width="256" height="256"/>
    </clipPath>
    <g clip-path="url(#_clip1)">
        <g>
            <circle cx="126.847" cy="128.312" r="127.979" style="fill:#f9f8fa;fill-opacity:0.55;"/>
            <path d="M55.874,220.053c42.743,-3.177 80.234,-7.014 132.006,-33.995c-0.97,10.664 -14.609,41.764 -21.777,51.542c-38.559,13.819 -79.05,7.545 -110.229,-17.547Zm-44.445,-107.613c24.124,35.428 46.192,65.979 95.444,97.323c-9.72,4.493 -43.473,8.231 -55.525,6.912c-31.247,-26.484 -46.059,-64.687 -39.919,-104.235Zm70.974,-92.296c-18.62,38.605 -34.044,72.992 -36.563,131.318c-8.75,-6.172 -28.864,-33.534 -33.748,-44.63c7.312,-40.303 32.991,-72.232 70.311,-86.688Zm115.417,15.316c-42.743,3.178 -80.234,7.014 -132.005,33.995c0.969,-10.663 14.608,-41.764 21.776,-51.542c38.56,-13.818 79.05,-7.544 110.229,17.547Zm44.445,107.613c-24.124,-35.427 -46.192,-65.978 -95.444,-97.323c9.72,-4.492 43.473,-8.23 55.525,-6.911c31.247,26.484 46.059,64.686 39.919,104.234Zm-70.973,92.297c18.619,-38.606 34.043,-72.992 36.562,-131.318c8.75,6.171 28.864,33.533 33.748,44.63c-7.312,40.303 -32.991,72.231 -70.31,86.688Z" style="fill:#6c8597;"/>
            <g>
                <path d="M65.815,108.474l-0,-27.536c-0,-1.849 1.497,-3.346 3.345,-3.346l27.523,0c1.849,0 3.346,1.497 3.346,3.346l-0,27.536c-0,1.848 -1.497,3.345 -3.346,3.345l-27.523,0c-1.848,0 -3.345,-1.497 -3.345,-3.345Zm6.691,-3.346l20.831,-0l0,-20.845l-20.831,0l-0,20.845Z" style="fill:#c55141;"/>
                <rect x="69.16" y="80.938" width="27.523" height="27.536" style="fill:#ff5a04;"/>
                <path d="M167.5,115.093c-11.246,-0 -20.379,-9.134 -20.379,-20.387c0,-11.252 9.133,-20.386 20.379,-20.386c11.247,0 20.38,9.134 20.38,20.386c-0,11.253 -9.133,20.387 -20.38,20.387Zm0,-6.692c7.555,0 13.688,-6.136 13.688,-13.695c0,-7.558 -6.133,-13.695 -13.688,-13.695c-7.554,0 -13.687,6.137 -13.687,13.695c-0,7.559 6.133,13.695 13.687,13.695Z" style="fill:#c55141;"/>
                <ellipse cx="167.5" cy="94.706" rx="17.033" ry="17.041" style="fill:#ff5a04;"/>
                <path d="M102.007,169.414l16.53,-16.538c0.547,-0.546 1.288,-0.853 2.061,-0.853c0.774,-0 1.515,0.307 2.061,0.853l16.53,16.538c1.138,1.138 1.138,2.983 0,4.122l-16.53,16.538c-0.546,0.546 -1.287,0.854 -2.061,0.854c-0.773,-0 -1.514,-0.308 -2.061,-0.854l-16.53,-16.538c-1.139,-1.139 -1.139,-2.984 -0,-4.122Zm6.181,2.061l12.41,12.415l12.409,-12.415l-12.409,-12.414l-12.41,12.414Z" style="fill:#c55141;"/>
                <path d="M104.068,171.475l16.53,-16.538l16.53,16.538l-16.53,16.538l-16.53,-16.538Z" style="fill:#ff5a04;"/>
                <path d="M104.297,97.785l-0,-6.157l22.379,0l-0,-9.236l17.465,12.314l-17.465,12.315l-0,-9.236l-22.379,-0Z" style="fill:#373737;"/>
                <path d="M170.265,120.625l0,53.617l-10.134,0l-0,9.549l-17.457,-12.317l17.457,-12.314l-0,9.547l4.603,-0l0,-48.082l5.531,0Z" style="fill:#373737;"/>
                <path d="M85.688,168.707l10.561,-0l-0,5.535l-16.092,0l-0,-41.912l-9.544,0l12.309,-17.464l12.31,17.464l-9.544,0l-0,36.377Z" style="fill:#373737;"/>
            </g>
        </g>
    </g>
</svg>
