<?xml version="1.0" encoding="UTF-8" standalone="no"?>
<!DOCTYPE svg PUBLIC "-//W3C//DTD SVG 1.1//EN" "http://www.w3.org/Graphics/SVG/1.1/DTD/svg11.dtd">
<svg width="100%" height="100%" viewBox="0 0 551 173" version="1.1" xmlns="http://www.w3.org/2000/svg" xmlns:xlink="http://www.w3.org/1999/xlink" xml:space="preserve" xmlns:serif="http://www.serif.com/" style="fill-rule:evenodd;clip-rule:evenodd;stroke-linejoin:round;stroke-miterlimit:2;">
    <rect id="Artboard2" x="0" y="0" width="551" height="173" style="fill:none;"/>
    <g transform="matrix(5.45977,0,0,5.45977,-945.907,-688.245)">
        <g transform="matrix(7.32631,0,0,7.32631,212.112,139.363)">
            <path d="M0.038,-0l0,-0.043l0.088,-0.019l-0.01,0.015l0,-0.431l0.011,0.015l-0.089,-0.019l-0,-0.043l0.14,-0.007l0.011,0.098l-0.011,-0.004c0.03,-0.031 0.059,-0.056 0.088,-0.073c0.029,-0.017 0.06,-0.026 0.094,-0.026c0.021,0 0.044,0.003 0.067,0.01l-0.006,0.14l-0.05,0l-0.012,-0.099l0.009,0.018c-0.005,-0.001 -0.01,-0.002 -0.015,-0.003c-0.005,-0.001 -0.011,-0.001 -0.016,-0.001c-0.027,-0 -0.053,0.008 -0.078,0.024c-0.025,0.016 -0.048,0.037 -0.071,0.062l0.008,-0.024l0,0.363l-0.012,-0.015l0.109,0.019l0,0.043l-0.255,-0Z" style="fill-rule:nonzero;"/>
        </g>
        <g transform="matrix(7.32631,0,0,7.32631,215.13,139.363)">
            <path d="M0.276,0.009c-0.045,0 -0.084,-0.01 -0.119,-0.03c-0.034,-0.021 -0.061,-0.051 -0.08,-0.09c-0.019,-0.039 -0.029,-0.087 -0.029,-0.144c-0,-0.058 0.01,-0.108 0.03,-0.15c0.02,-0.042 0.048,-0.074 0.085,-0.097c0.037,-0.023 0.08,-0.035 0.129,-0.035c0.047,0 0.085,0.01 0.115,0.03c0.031,0.019 0.053,0.046 0.068,0.081c0.015,0.035 0.023,0.074 0.023,0.119c-0,0.007 -0,0.015 -0.001,0.022c-0.001,0.007 -0.002,0.016 -0.003,0.027l-0.385,-0l-0,-0.057l0.315,-0l-0.009,0.006c0.001,-0.03 -0.003,-0.058 -0.011,-0.083c-0.008,-0.025 -0.022,-0.046 -0.041,-0.061c-0.019,-0.015 -0.045,-0.023 -0.077,-0.023c-0.034,-0 -0.063,0.009 -0.086,0.027c-0.023,0.018 -0.041,0.043 -0.052,0.074c-0.011,0.031 -0.017,0.068 -0.017,0.109c0,0.044 0.006,0.082 0.019,0.114c0.013,0.031 0.031,0.056 0.055,0.073c0.025,0.017 0.055,0.026 0.09,0.026c0.025,-0 0.052,-0.005 0.081,-0.014c0.029,-0.01 0.06,-0.025 0.091,-0.045l0.029,0.045c-0.037,0.025 -0.075,0.044 -0.112,0.057c-0.037,0.013 -0.073,0.019 -0.108,0.019Z" style="fill-rule:nonzero;"/>
        </g>
        <g transform="matrix(7.32631,0,0,7.32631,219.138,139.363)">
            <path d="M0.038,-0l0,-0.043l0.09,-0.02l-0.012,0.015l0,-0.43l0.012,0.015l-0.09,-0.019l-0,-0.043l0.14,-0.007l0.011,0.098l-0.011,-0.004c0.033,-0.034 0.068,-0.059 0.104,-0.075c0.037,-0.016 0.071,-0.024 0.104,-0.024c0.044,0 0.08,0.014 0.109,0.041c0.029,0.027 0.044,0.068 0.043,0.125l0,0.323l-0.01,-0.014l0.088,0.019l0,0.043l-0.233,0l0,-0.043l0.087,-0.019l-0.012,0.015l0,-0.307c0,-0.041 -0.009,-0.072 -0.028,-0.091c-0.019,-0.019 -0.044,-0.029 -0.075,-0.029c-0.025,0 -0.052,0.007 -0.081,0.02c-0.029,0.013 -0.057,0.034 -0.085,0.062l0.007,-0.016l0,0.361l-0.01,-0.014l0.085,0.018l0,0.043l-0.233,0Z" style="fill-rule:nonzero;"/>
        </g>
        <g transform="matrix(7.32631,0,0,7.32631,223.775,139.363)">
            <path d="M0.276,0.009c-0.045,0 -0.084,-0.01 -0.119,-0.03c-0.034,-0.021 -0.061,-0.051 -0.08,-0.09c-0.019,-0.039 -0.029,-0.087 -0.029,-0.144c-0,-0.058 0.01,-0.108 0.03,-0.15c0.02,-0.042 0.048,-0.074 0.085,-0.097c0.037,-0.023 0.08,-0.035 0.129,-0.035c0.047,0 0.085,0.01 0.115,0.03c0.031,0.019 0.053,0.046 0.068,0.081c0.015,0.035 0.023,0.074 0.023,0.119c-0,0.007 -0,0.015 -0.001,0.022c-0.001,0.007 -0.002,0.016 -0.003,0.027l-0.385,-0l-0,-0.057l0.315,-0l-0.009,0.006c0.001,-0.03 -0.003,-0.058 -0.011,-0.083c-0.008,-0.025 -0.022,-0.046 -0.041,-0.061c-0.019,-0.015 -0.045,-0.023 -0.077,-0.023c-0.034,-0 -0.063,0.009 -0.086,0.027c-0.023,0.018 -0.041,0.043 -0.052,0.074c-0.011,0.031 -0.017,0.068 -0.017,0.109c0,0.044 0.006,0.082 0.019,0.114c0.013,0.031 0.031,0.056 0.055,0.073c0.025,0.017 0.055,0.026 0.09,0.026c0.025,-0 0.052,-0.005 0.081,-0.014c0.029,-0.01 0.06,-0.025 0.091,-0.045l0.029,0.045c-0.037,0.025 -0.075,0.044 -0.112,0.057c-0.037,0.013 -0.073,0.019 -0.108,0.019Z" style="fill-rule:nonzero;"/>
        </g>
        <g transform="matrix(7.32631,0,0,7.32631,227.6,139.363)">
            <path d="M0.603,-0.525l0.201,-0.007l0,0.044l-0.07,0.017l0.014,-0.012l-0.137,0.485l-0.088,0l-0.13,-0.472l0.016,0l-0.138,0.472l-0.088,0l-0.131,-0.483l0.012,0.012l-0.069,-0.013l-0,-0.043l0.216,-0.007l-0,0.044l-0.091,0.016l0.009,-0.01l0.111,0.435l-0.013,0l0.134,-0.479l0.087,-0.006l0.129,0.488l-0.013,0l0.117,-0.436l0.009,0.011l-0.087,-0.013l-0,-0.043Z" style="fill-rule:nonzero;"/>
        </g>
        <g transform="matrix(7.32631,0,0,7.32631,233.307,139.363)">
            <path d="M0.009,0.239c-0.008,0 -0.016,-0 -0.024,-0.001c-0.008,-0.001 -0.017,-0.002 -0.026,-0.003l0.007,-0.059c0.007,0.001 0.013,0.001 0.019,0.001c0.006,0.001 0.011,0.001 0.016,0.001c0.037,0 0.063,-0.009 0.078,-0.027c0.015,-0.018 0.023,-0.049 0.023,-0.092l0,-0.535l0.011,0.013l-0.089,-0.019l-0,-0.043l0.158,-0.006l0,0.564c0,0.034 -0.003,0.064 -0.01,0.089c-0.006,0.026 -0.016,0.047 -0.03,0.064c-0.014,0.017 -0.032,0.03 -0.054,0.039c-0.022,0.009 -0.048,0.014 -0.079,0.014Zm0.125,-0.878c-0.015,0 -0.028,-0.005 -0.038,-0.015c-0.01,-0.01 -0.015,-0.024 -0.015,-0.041c0,-0.018 0.005,-0.032 0.015,-0.041c0.011,-0.01 0.024,-0.015 0.039,-0.015c0.016,0 0.029,0.005 0.039,0.014c0.01,0.009 0.015,0.023 0.015,0.042c-0,0.018 -0.005,0.032 -0.016,0.042c-0.011,0.009 -0.024,0.014 -0.039,0.014Z" style="fill-rule:nonzero;"/>
        </g>
        <g transform="matrix(7.32631,0,0,7.32631,235.292,139.363)">
            <path d="M0.139,-0.4c0,0.021 0.007,0.038 0.021,0.05c0.014,0.012 0.032,0.022 0.054,0.03c0.022,0.007 0.045,0.015 0.07,0.022c0.025,0.007 0.048,0.016 0.07,0.027c0.022,0.011 0.04,0.025 0.054,0.044c0.014,0.019 0.021,0.043 0.021,0.074c-0,0.035 -0.01,0.065 -0.029,0.089c-0.019,0.024 -0.046,0.042 -0.079,0.055c-0.033,0.012 -0.069,0.018 -0.11,0.018c-0.025,0 -0.05,-0.002 -0.076,-0.006c-0.026,-0.004 -0.053,-0.01 -0.08,-0.017l0.007,-0.134l0.051,0l0.01,0.098l-0.009,-0.011c0.015,0.004 0.032,0.007 0.05,0.01c0.018,0.003 0.035,0.004 0.05,0.004c0.024,0 0.046,-0.003 0.066,-0.01c0.021,-0.007 0.037,-0.018 0.05,-0.031c0.013,-0.014 0.019,-0.031 0.019,-0.052c0,-0.022 -0.007,-0.039 -0.021,-0.052c-0.013,-0.013 -0.031,-0.023 -0.053,-0.031c-0.022,-0.008 -0.045,-0.015 -0.07,-0.022c-0.024,-0.007 -0.047,-0.016 -0.069,-0.027c-0.022,-0.011 -0.04,-0.026 -0.054,-0.044c-0.014,-0.018 -0.021,-0.043 -0.021,-0.074c-0,-0.034 0.009,-0.062 0.026,-0.083c0.018,-0.022 0.041,-0.038 0.07,-0.048c0.029,-0.011 0.061,-0.016 0.094,-0.016c0.023,0 0.048,0.002 0.075,0.007c0.027,0.005 0.055,0.012 0.084,0.021l-0.005,0.113l-0.051,0l-0.015,-0.083l0.012,0.014c-0.035,-0.01 -0.067,-0.015 -0.098,-0.015c-0.033,0 -0.06,0.007 -0.082,0.021c-0.021,0.013 -0.032,0.033 -0.032,0.059Z" style="fill-rule:nonzero;"/>
        </g>
        <g transform="matrix(10.44,0,0,10.44,211.453,149.437)">
            <path d="M0.35,-0.702c0.047,0 0.09,0.007 0.129,0.021c0.039,0.014 0.073,0.035 0.101,0.064c0.028,0.028 0.05,0.063 0.065,0.106c0.015,0.042 0.023,0.091 0.023,0.148c0,0.079 -0.014,0.146 -0.043,0.2c-0.028,0.053 -0.067,0.094 -0.118,0.122c-0.051,0.027 -0.11,0.041 -0.177,0.041l-0.29,-0l-0,-0.062l0.096,-0.025l-0.018,0.025l-0,-0.575l0.019,0.026l-0.097,-0.024l-0,-0.062l0.214,-0.005l0.096,0Zm-0.014,0.613c0.025,0 0.049,-0.004 0.072,-0.011c0.023,-0.008 0.045,-0.021 0.064,-0.04c0.019,-0.019 0.035,-0.046 0.046,-0.081c0.012,-0.035 0.018,-0.079 0.018,-0.134c0,-0.053 -0.006,-0.097 -0.017,-0.13c-0.011,-0.034 -0.025,-0.06 -0.044,-0.078c-0.018,-0.019 -0.038,-0.032 -0.061,-0.039c-0.022,-0.007 -0.045,-0.011 -0.068,-0.011l-0.125,0l0.02,-0.02l-0,0.564l-0.02,-0.02l0.115,0Z" style="fill-rule:nonzero;"/>
        </g>
        <g transform="matrix(10.44,0,0,10.44,218.802,149.437)">
            <path d="M0.275,0.011c-0.047,0 -0.088,-0.01 -0.124,-0.03c-0.036,-0.021 -0.064,-0.051 -0.084,-0.091c-0.02,-0.04 -0.03,-0.089 -0.03,-0.147c-0,-0.059 0.01,-0.11 0.031,-0.153c0.021,-0.043 0.051,-0.075 0.089,-0.098c0.039,-0.023 0.084,-0.035 0.137,-0.035c0.05,0 0.091,0.01 0.122,0.031c0.032,0.02 0.056,0.048 0.071,0.083c0.015,0.035 0.023,0.075 0.023,0.12c0,0.01 -0,0.02 -0.001,0.03c-0.001,0.01 -0.002,0.021 -0.004,0.033l-0.372,0l0,-0.076l0.267,0l-0.014,0.009c0.001,-0.027 -0.002,-0.051 -0.009,-0.072c-0.006,-0.021 -0.017,-0.038 -0.032,-0.051c-0.015,-0.013 -0.036,-0.019 -0.061,-0.019c-0.029,0 -0.052,0.008 -0.071,0.024c-0.018,0.016 -0.031,0.038 -0.04,0.065c-0.008,0.027 -0.012,0.058 -0.012,0.093c0,0.038 0.005,0.072 0.015,0.101c0.01,0.029 0.026,0.051 0.047,0.068c0.021,0.017 0.048,0.025 0.081,0.025c0.023,0 0.049,-0.004 0.076,-0.013c0.027,-0.009 0.056,-0.022 0.085,-0.04l0.041,0.065c-0.038,0.026 -0.077,0.046 -0.116,0.059c-0.039,0.013 -0.078,0.019 -0.115,0.019Z" style="fill-rule:nonzero;"/>
        </g>
        <g transform="matrix(10.44,0,0,10.44,224.524,149.437)">
            <path d="M0.536,-0.448l-0.017,0.004c0.032,-0.033 0.066,-0.057 0.102,-0.074c0.037,-0.017 0.071,-0.025 0.103,-0.025c0.042,0 0.077,0.014 0.105,0.041c0.028,0.027 0.042,0.07 0.042,0.127l0,0.308l-0.012,-0.018l0.083,0.023l0,0.062l-0.253,0l0,-0.062l0.077,-0.021l-0.015,0.019l0,-0.285c0,-0.035 -0.007,-0.06 -0.022,-0.077c-0.015,-0.017 -0.033,-0.025 -0.056,-0.025c-0.02,0 -0.042,0.006 -0.066,0.018c-0.023,0.011 -0.047,0.029 -0.071,0.052l0.009,-0.027c0.001,0.005 0.002,0.01 0.002,0.015l0,0.326l-0.012,-0.018l0.075,0.023l0,0.062l-0.245,0l0,-0.062l0.077,-0.021l-0.015,0.019l0,-0.285c0,-0.035 -0.007,-0.06 -0.022,-0.077c-0.015,-0.017 -0.033,-0.025 -0.056,-0.025c-0.019,0 -0.041,0.006 -0.065,0.017c-0.024,0.011 -0.047,0.027 -0.07,0.05l0.009,-0.019l0,0.339l-0.012,-0.019l0.074,0.021l0,0.062l-0.253,0l0,-0.062l0.086,-0.023l-0.015,0.018l0,-0.397l0.015,0.02l-0.086,-0.023l0,-0.062l0.164,-0.008l0.016,0.097l-0.016,-0.006c0.032,-0.032 0.066,-0.056 0.101,-0.072c0.036,-0.017 0.07,-0.025 0.103,-0.025c0.031,0 0.058,0.008 0.082,0.023c0.024,0.015 0.042,0.039 0.054,0.072Z" style="fill-rule:nonzero;"/>
        </g>
        <g transform="matrix(10.44,0,0,10.44,234.483,149.437)">
            <path d="M0.295,-0.543c0.077,0 0.137,0.023 0.18,0.07c0.043,0.046 0.065,0.112 0.065,0.197c0,0.059 -0.011,0.11 -0.032,0.153c-0.021,0.043 -0.051,0.076 -0.09,0.099c-0.039,0.023 -0.085,0.035 -0.14,0.035c-0.077,0 -0.136,-0.023 -0.179,-0.069c-0.042,-0.046 -0.063,-0.112 -0.063,-0.198c-0,-0.059 0.01,-0.11 0.031,-0.153c0.021,-0.043 0.05,-0.076 0.089,-0.099c0.039,-0.023 0.085,-0.035 0.139,-0.035Zm-0.006,0.086c-0.042,0 -0.074,0.016 -0.096,0.049c-0.021,0.033 -0.032,0.081 -0.032,0.146c-0,0.065 0.01,0.112 0.031,0.142c0.021,0.03 0.051,0.045 0.092,0.045c0.029,0 0.054,-0.007 0.073,-0.022c0.019,-0.015 0.034,-0.037 0.044,-0.066c0.01,-0.029 0.015,-0.065 0.015,-0.107c0,-0.063 -0.011,-0.109 -0.033,-0.14c-0.021,-0.031 -0.053,-0.047 -0.094,-0.047Z" style="fill-rule:nonzero;"/>
        </g>
        <g transform="matrix(10.44,0,0,10.44,240.392,149.437)">
            <path d="M0.344,0.011c-0.054,0 -0.104,-0.013 -0.149,-0.04c-0.045,-0.027 -0.08,-0.068 -0.107,-0.121c-0.027,-0.053 -0.04,-0.119 -0.04,-0.197c-0,-0.077 0.013,-0.142 0.039,-0.197c0.027,-0.055 0.064,-0.096 0.112,-0.125c0.048,-0.029 0.104,-0.044 0.168,-0.044c0.035,0 0.07,0.004 0.106,0.013c0.037,0.008 0.075,0.021 0.116,0.038l-0.008,0.173l-0.073,0l-0.022,-0.12l0.021,0.021c-0.025,-0.01 -0.049,-0.017 -0.072,-0.022c-0.023,-0.005 -0.044,-0.008 -0.064,-0.008c-0.041,0 -0.075,0.01 -0.104,0.031c-0.028,0.02 -0.05,0.049 -0.065,0.088c-0.015,0.038 -0.022,0.083 -0.022,0.136c-0,0.061 0.008,0.111 0.025,0.152c0.017,0.041 0.04,0.071 0.069,0.092c0.03,0.02 0.064,0.03 0.101,0.03c0.027,-0 0.056,-0.006 0.087,-0.017c0.031,-0.012 0.061,-0.03 0.091,-0.055l0.046,0.072c-0.041,0.033 -0.083,0.058 -0.127,0.075c-0.043,0.017 -0.086,0.025 -0.128,0.025Z" style="fill-rule:nonzero;"/>
        </g>
        <g transform="matrix(10.44,0,0,10.44,246.625,149.437)">
            <path d="M0.209,-0.072l-0.01,-0.011l0.081,0.021l0,0.062l-0.261,-0l0,-0.062l0.08,-0.021l-0.01,0.011l0,-0.624l0.009,0.01l-0.079,-0.02l0,-0.062l0.19,-0.008l0,0.704Z" style="fill-rule:nonzero;"/>
        </g>
        <g transform="matrix(10.44,0,0,10.44,249.736,149.437)">
            <path d="M0.223,-0.072l-0.01,-0.011l0.08,0.021l0,0.062l-0.261,-0l0,-0.062l0.08,-0.021l-0.009,0.011l0,-0.384l0.008,0.009l-0.079,-0.02l0,-0.062l0.191,-0.007l0,0.464Zm-0.065,-0.552c-0.022,0 -0.04,-0.006 -0.053,-0.019c-0.013,-0.013 -0.02,-0.03 -0.02,-0.053c0,-0.025 0.007,-0.043 0.021,-0.055c0.014,-0.013 0.032,-0.019 0.053,-0.019c0.021,0 0.038,0.006 0.051,0.018c0.014,0.012 0.021,0.03 0.021,0.055c0,0.024 -0.007,0.042 -0.021,0.055c-0.014,0.012 -0.031,0.018 -0.052,0.018Z" style="fill-rule:nonzero;"/>
        </g>
        <g transform="matrix(10.44,0,0,10.44,252.983,149.437)">
            <path d="M0.275,0.011c-0.047,0 -0.088,-0.01 -0.124,-0.03c-0.036,-0.021 -0.064,-0.051 -0.084,-0.091c-0.02,-0.04 -0.03,-0.089 -0.03,-0.147c-0,-0.059 0.01,-0.11 0.031,-0.153c0.021,-0.043 0.051,-0.075 0.089,-0.098c0.039,-0.023 0.084,-0.035 0.137,-0.035c0.05,0 0.091,0.01 0.122,0.031c0.032,0.02 0.056,0.048 0.071,0.083c0.015,0.035 0.023,0.075 0.023,0.12c0,0.01 -0,0.02 -0.001,0.03c-0.001,0.01 -0.002,0.021 -0.004,0.033l-0.372,0l0,-0.076l0.267,0l-0.014,0.009c0.001,-0.027 -0.002,-0.051 -0.009,-0.072c-0.006,-0.021 -0.017,-0.038 -0.032,-0.051c-0.015,-0.013 -0.036,-0.019 -0.061,-0.019c-0.029,0 -0.052,0.008 -0.071,0.024c-0.018,0.016 -0.031,0.038 -0.04,0.065c-0.008,0.027 -0.012,0.058 -0.012,0.093c0,0.038 0.005,0.072 0.015,0.101c0.01,0.029 0.026,0.051 0.047,0.068c0.021,0.017 0.048,0.025 0.081,0.025c0.023,0 0.049,-0.004 0.076,-0.013c0.027,-0.009 0.056,-0.022 0.085,-0.04l0.041,0.065c-0.038,0.026 -0.077,0.046 -0.116,0.059c-0.039,0.013 -0.078,0.019 -0.115,0.019Z" style="fill-rule:nonzero;"/>
        </g>
        <g transform="matrix(10.44,0,0,10.44,258.704,149.437)">
            <path d="M0.032,-0l0,-0.062l0.086,-0.023l-0.015,0.018l0,-0.397l0.015,0.02l-0.086,-0.023l0,-0.062l0.164,-0.008l0.016,0.097l-0.016,-0.006c0.033,-0.033 0.067,-0.058 0.103,-0.073c0.036,-0.016 0.07,-0.024 0.103,-0.024c0.045,0 0.082,0.014 0.111,0.042c0.03,0.028 0.045,0.07 0.044,0.127l0,0.307l-0.012,-0.018l0.083,0.023l0,0.062l-0.256,0l0,-0.062l0.08,-0.021l-0.015,0.019l0,-0.284c0,-0.035 -0.008,-0.061 -0.024,-0.078c-0.015,-0.017 -0.036,-0.025 -0.062,-0.025c-0.02,0 -0.042,0.006 -0.066,0.017c-0.024,0.011 -0.048,0.027 -0.071,0.05l0.009,-0.019l0,0.339l-0.012,-0.019l0.077,0.021l0,0.062l-0.256,0Z" style="fill-rule:nonzero;"/>
        </g>
        <g transform="matrix(10.44,0,0,10.44,265.386,149.437)">
            <path d="M0.221,0.011c-0.042,0 -0.074,-0.013 -0.097,-0.038c-0.023,-0.026 -0.034,-0.065 -0.034,-0.116l0,-0.325l0.017,0.017l-0.099,0l0,-0.065l0.1,-0.02l-0.018,0.021l0,-0.135l0.121,-0.021l0,0.156l-0.014,-0.017l0.154,0l-0.002,0.081l-0.152,0l0.014,-0.017l0,0.309c0,0.029 0.005,0.049 0.015,0.062c0.01,0.013 0.024,0.019 0.043,0.019c0.011,0 0.024,-0.002 0.037,-0.006c0.013,-0.004 0.028,-0.009 0.043,-0.015l0.023,0.066c-0.053,0.029 -0.103,0.044 -0.151,0.044Z" style="fill-rule:nonzero;"/>
        </g>
    </g>
    <g>
        <circle cx="89.211" cy="88.5" r="79.145" style="fill:#f9f8fa;fill-opacity:0.55;"/>
        <path d="M47.915,141.879c24.87,-1.849 46.684,-4.081 76.807,-19.78c-0.564,6.205 -8.5,24.3 -12.671,29.989c-22.435,8.041 -45.994,4.39 -64.136,-10.209Zm-25.859,-62.614c14.036,20.613 26.876,38.389 55.533,56.627c-5.656,2.614 -25.295,4.789 -32.307,4.021c-18.181,-15.409 -26.799,-37.637 -23.226,-60.648Zm41.295,-53.702c-10.834,22.462 -19.808,42.47 -21.274,76.406c-5.091,-3.59 -16.794,-19.511 -19.636,-25.967c4.255,-23.45 19.196,-42.027 40.91,-50.439Zm67.155,8.912c-24.87,1.849 -46.684,4.081 -76.807,19.78c0.564,-6.205 8.5,-24.3 12.671,-29.99c22.435,-8.04 45.994,-4.389 64.136,10.21Zm25.86,62.614c-14.037,-20.614 -26.877,-38.389 -55.533,-56.627c5.655,-2.614 25.294,-4.789 32.306,-4.022c18.181,15.41 26.799,37.638 23.227,60.649Zm-41.296,53.702c10.834,-22.463 19.808,-42.47 21.274,-76.407c5.091,3.591 16.794,19.511 19.636,25.968c-4.255,23.45 -19.196,42.027 -40.91,50.439Z" style="fill:#6c8597;"/>
        <g>
            <path d="M53.699,76.957l0,-16.021c0,-1.076 0.871,-1.947 1.947,-1.947l16.014,-0c1.075,-0 1.947,0.871 1.947,1.947l-0,16.021c-0,1.076 -0.872,1.947 -1.947,1.947l-16.014,-0c-1.076,-0 -1.947,-0.871 -1.947,-1.947Zm3.894,-1.947l12.12,0l0,-12.128l-12.12,0l-0,12.128Z" style="fill:#c55141;"/>
            <rect x="55.646" y="60.936" width="16.014" height="16.022" style="fill:#ff5a04;"/>
            <path d="M112.864,80.808c-6.543,0 -11.857,-5.314 -11.857,-11.861c0,-6.547 5.314,-11.862 11.857,-11.862c6.544,0 11.858,5.315 11.858,11.862c-0,6.547 -5.314,11.861 -11.858,11.861Zm0,-3.893c4.396,0 7.965,-3.57 7.965,-7.968c-0,-4.398 -3.569,-7.969 -7.965,-7.969c-4.395,0 -7.964,3.571 -7.964,7.969c0,4.398 3.569,7.968 7.964,7.968Z" style="fill:#c55141;"/>
            <ellipse cx="112.864" cy="68.947" rx="9.911" ry="9.915" style="fill:#ff5a04;"/>
            <path d="M74.757,112.414l9.619,-9.622c0.318,-0.317 0.749,-0.496 1.199,-0.496c0.45,-0 0.881,0.179 1.199,0.496l9.618,9.622c0.662,0.663 0.662,1.737 -0,2.399l-9.618,9.623c-0.318,0.317 -0.749,0.496 -1.199,0.496c-0.45,0 -0.881,-0.179 -1.199,-0.496l-9.619,-9.623c-0.662,-0.662 -0.662,-1.736 0,-2.399Zm3.597,1.2l7.221,7.223l7.22,-7.223l-7.22,-7.223l-7.221,7.223Z" style="fill:#c55141;"/>
            <path d="M75.957,113.614l9.618,-9.622l9.618,9.622l-9.618,9.622l-9.618,-9.622Z" style="fill:#ff5a04;"/>
            <path d="M76.09,70.738l-0,-3.582l13.021,-0l-0,-5.375l10.162,7.166l-10.162,7.165l-0,-5.374l-13.021,-0Z" style="fill:#373737;"/>
            <path d="M114.473,84.027l0,31.197l-5.897,-0l0,5.556l-10.157,-7.166l10.157,-7.166l0,5.555l2.679,0l-0,-27.976l3.218,0Z" style="fill:#373737;"/>
            <path d="M65.262,112.003l6.145,0l0,3.221l-9.363,-0l0,-24.386l-5.553,-0l7.162,-10.162l7.163,10.162l-5.554,-0l0,21.165Z" style="fill:#373737;"/>
        </g>
    </g>
</svg>
