<?xml version="1.0" encoding="UTF-8" standalone="no"?>
<!DOCTYPE svg PUBLIC "-//W3C//DTD SVG 1.1//EN" "http://www.w3.org/Graphics/SVG/1.1/DTD/svg11.dtd">
<svg width="100%" height="100%" viewBox="0 0 100 100" version="1.1" xmlns="http://www.w3.org/2000/svg" xmlns:xlink="http://www.w3.org/1999/xlink" xml:space="preserve" xmlns:serif="http://www.serif.com/" style="fill-rule:evenodd;clip-rule:evenodd;stroke-linejoin:round;stroke-miterlimit:2;">
    <g>
        <path d="M97.705,41.138l0,19.053c0,1.279 -1.036,2.315 -2.315,2.315l-19.044,0c-1.279,0 -2.315,-1.036 -2.315,-2.315l0,-19.053c0,-1.279 1.036,-2.315 2.315,-2.315l19.044,-0c1.279,-0 2.315,1.036 2.315,2.315Zm-4.63,2.315l-14.414,0l0,14.423l14.414,-0l0,-14.423Z" style="fill:#c55141;"/>
        <rect x="76.346" y="41.138" width="19.044" height="19.053" style="fill:#ff5a04;"/>
        <path d="M15.396,36.558c7.782,0 14.101,6.32 14.101,14.106c0,7.786 -6.319,14.106 -14.101,14.106c-7.782,0 -14.101,-6.32 -14.101,-14.106c0,-7.786 6.319,-14.106 14.101,-14.106Zm0,4.63c-5.227,0 -9.471,4.246 -9.471,9.476c0,5.23 4.244,9.476 9.471,9.476c5.227,0 9.471,-4.246 9.471,-9.476c0,-5.23 -4.244,-9.476 -9.471,-9.476Z" style="fill:#c55141;"/>
        <ellipse cx="15.396" cy="50.664" rx="11.786" ry="11.791" style="fill:#ff5a04;"/>
        <path d="M66.599,19.098l-13.13,13.135c-0.434,0.434 -1.023,0.678 -1.637,0.678c-0.614,0 -1.203,-0.244 -1.637,-0.678l-13.129,-13.135c-0.904,-0.904 -0.904,-2.37 0,-3.274l13.129,-13.136c0.434,-0.434 1.023,-0.678 1.637,-0.678c0.614,0 1.203,0.244 1.637,0.678l13.13,13.136c0.904,0.904 0.904,2.37 0,3.274Zm-4.91,-1.637l-9.857,-9.861l-9.856,9.861l9.856,9.86l9.857,-9.86Z" style="fill:#c55141;"/>
        <path d="M64.962,17.461l-13.13,13.135l-13.129,-13.135l13.129,-13.136l13.13,13.136Z" style="fill:#ff5a04;"/>
        <path d="M64.028,85.244l-12.062,12.068c-0.434,0.434 -1.023,0.678 -1.637,0.678c-0.614,0 -1.203,-0.244 -1.637,-0.678l-12.062,-12.068c-0.904,-0.904 -0.904,-2.37 -0,-3.274l12.062,-12.067c0.434,-0.434 1.023,-0.678 1.637,-0.678c0.614,0 1.203,0.244 1.637,0.678l12.062,12.067c0.904,0.904 0.904,2.37 0,3.274Zm-4.91,-1.637l-8.789,-8.792l-8.789,8.792l8.789,8.793l8.789,-8.793Z" style="fill:#c55141;"/>
        <path d="M62.391,83.607l-12.062,12.068l-12.062,-12.068l12.062,-12.067l12.062,12.067Z" style="fill:#ff5a04;"/>
        <path d="M67.095,48.534l0,4.26l-23.451,0l0,6.391l-12.085,-8.521l12.085,-8.521l0,6.391l23.451,0Z" style="fill:#373737;"/>
        <path d="M13.483,85.522l0,-6.604l-6.604,0l8.517,-12.084l8.518,12.084l-6.604,0l-0,2.774l14.249,-0l-0,3.83l-18.076,0Z" style="fill:#373737;"/>
        <path d="M13.483,32.73l0,-17.184l9.004,-0l-0,-6.607l12.079,8.522l-12.079,8.521l-0,-6.606l-5.177,-0l-0,13.354l-3.827,-0Z" style="fill:#373737;"/>
        <path d="M83.954,19.376l-13.282,0l-0,-3.83l17.109,-0l0,9.085l6.604,0l-8.517,12.084l-8.518,-12.084l6.604,-0l-0,-5.255Z" style="fill:#373737;"/>
        <path d="M87.781,68.525l0,16.997l-6.707,0l-0,6.607l-12.079,-8.522l12.079,-8.521l-0,6.606l2.88,0l-0,-13.167l3.827,0Z" style="fill:#373737;"/>
    </g>
</svg>
